<svg xmlns:vectornator="http://vectornator.io" xmlns:xlink="http://www.w3.org/1999/xlink" xmlns="http://www.w3.org/2000/svg" xml:space="preserve" version="1.1" viewBox="0 0 2048 2048">
<g id="Layer 1" vectornator:layerName="Layer 1">
<path stroke="#ffffff" stroke-width="50.97" d="M584.744+695.178L270.507+957.522C270.507+957.522+398.39+1111.33+433.969+1145.08C501.981+1209.6+575.879+1219.23+663.812+1283.22C727.819+1329.79+842.717+1462.68+860.98+1482.33C879.244+1501.99+968.369+1604.02+968.369+1604.02L1112.24+1482.16C1112.24+1482.16+1027+1378.02+1010.87+1356.58C994.742+1335.14+884.187+1198.62+849.624+1127.4C802.141+1029.57+805.682+955.131+754.163+876.813C727.211+835.842+598.352+682.851+598.352+682.851L284.729+945.928" fill="none" stroke-linecap="butt" opacity="1" stroke-linejoin="round"/>
<path stroke="#ffffff" stroke-width="50.97" d="M397.425+964.544" fill="#ffffff" stroke-linecap="butt" opacity="1" stroke-linejoin="round"/>
<path stroke="#ffffff" stroke-width="10.45" d="M191.134+540.365C191.134+540.365+152.149+537.425+176.103+626.553C199.216+712.553+240.307+802.638+282.835+842.908C292.352+834.799+360.049+781.689+361.599+780.361C355.949+749.587+356.154+702.095+368.29+666.959C385.093+618.311+333.854+584.541+308.657+595.341C281.984+606.772+276.329+624.127+270.603+666.334C267.663+687.999+236.385+678.032+227.321+608.928C218.258+539.823+191.134+540.365+191.134+540.365Z" fill="#ffffff" stroke-linecap="round" opacity="1" stroke-linejoin="round"/>
<path stroke="#ffffff" stroke-width="10.45" d="M189.065+412.14C188.377+386.681+189.592+355.983+219.649+352.292C249.705+348.6+252.854+377.116+251.551+403.704C250.232+430.596+241.504+464.438+223.076+468.826C206.466+472.78+190.383+460.916+189.065+412.14Z" fill="#ffffff" stroke-linecap="round" opacity="1" stroke-linejoin="round"/>
<path stroke="#ffffff" stroke-width="10.45" d="M167.768+454.823" fill="#ffffff" stroke-linecap="round" opacity="1" stroke-linejoin="round"/>
<path stroke="#ffffff" stroke-width="10.45" d="M347.293+524.405C350.377+513.254+355.43+488.448+380.272+494.985C402.811+500.916+394.982+540.064+394.982+540.064C394.982+540.064+388.338+579.685+363.427+568.772C338.515+557.858+344.762+533.557+347.293+524.405Z" fill="#ffffff" stroke-linecap="round" opacity="1" stroke-linejoin="round"/>
<path stroke="#ffffff" stroke-width="10.45" d="M663.793+885.476C663.793+885.476+647.803+857.361+627.48+857.361C605.35+857.361+602.318+884.776+566.735+886.394C531.152+888.011+525.642+848.427+493.406+874.197C456.233+903.913+383.673+966.872+383.673+966.872C383.673+966.872+434.612+1031.44+453.601+1035.38C483.438+1041.57+485.141+1029.79+517.416+1035.18C548.867+1040.42+553.543+1060.02+587.725+1058.65C619.398+1057.38+621.736+1030.56+653.525+1025.76C685.314+1020.96+703.271+1035.61+726.541+1035.42C746.423+1035.27+728.393+983.92+709.387+951.302C695.733+927.87+682.148+907.912+664.027+885.242" fill="#ffffff" stroke-linecap="round" opacity="1" stroke-linejoin="round"/>
<path stroke="#ffffff" stroke-width="50.97" d="M511.07+362.252L1437.58+362.252L1437.58+570.696L511.07+570.696L511.07+362.252Z" fill="#ffffff" stroke-linecap="round" opacity="1" stroke-linejoin="round"/>
</g>
<g id="Layer 2" vectornator:layerName="Layer 2" visibility="hidden">
<path stroke="#ffffff" stroke-width="27.22" d="M727.457+672.5L810.008+765.752C810.008+765.752+877.849+858.636+900.544+893.518C918.301+920.808+1080.95+1022.19+1171.18+1021.91C1243.5+1021.69+1291.55+1016.41+1370.82+999.068C1450.1+981.726+1466.86+967.699+1466.86+967.699C1466.86+967.699+1441.45+920.971+1432.11+862.363C1420.17+787.433+1449.54+676.715+1449.54+676.715L727.966+673.519" fill="#ffffff" stroke-linecap="round" opacity="1" stroke-linejoin="round"/>
<path stroke="#ffffff" stroke-width="27.86" d="M893.191+1652.91L736.908+1481.98C736.908+1481.98+622.757+1349.2+590.074+1331.02C529.637+1297.4+513.009+1308.31+513.009+1308.31L512.65+1657.21L897.737+1657.21" fill="#ffffff" stroke-linecap="round" opacity="1" stroke-linejoin="round"/>
<path stroke="#ffffff" stroke-width="27.22" d="M1439.65+1453.64C1407.11+1437.42+1357.29+1416.48+1308.83+1389.45C1260.36+1362.42+1167.93+1296.25+1167.93+1296.25L972.294+1143.2C972.294+1143.2+998.459+1187.91+1049.73+1258.02C1095.4+1320.47+1242.66+1500.35+1242.66+1500.35L1070.24+1656L1439.85+1655.95L1439.22+1454.91" fill="#ffffff" stroke-linecap="round" opacity="1" stroke-linejoin="round"/>
<path stroke="#ffffff" stroke-width="9.69" d="M969.907+993.984" fill="#ffffff" stroke-linecap="round" opacity="1" stroke-linejoin="round"/>
<path stroke="#ffffff" stroke-width="9.69" d="M909.42+983.385C909.42+983.385+1080.34+1152.72+1174.84+1223.72C1213.9+1253.07+1444.6+1386.32+1444.6+1386.32C1444.6+1386.32+1547.06+1438.19+1666.39+1454.85C1785.71+1471.52+1921.91+1452.98+1921.91+1452.98C1921.91+1452.98+1826.41+1369.48+1772.91+1253.98C1719.41+1138.48+1715.41+1093.48+1707.91+990.984C1700.41+888.484+1736.91+835.984+1736.91+835.984C1736.91+835.984+1664.91+903.984+1555.91+968.984C1450.17+1032.04+1444.66+1038.23+1349.91+1061.98C1255.16+1085.73+1227.91+1082.98+1150.91+1075.98C1074.11+1069+909.42+983.385+909.42+983.385Z" fill="#ffffff" stroke-linecap="round" opacity="1" stroke-linejoin="round"/>
</g>
<g id="Layer 2 copy" vectornator:layerName="Layer 2 copy">
<path stroke="#ffffff" stroke-width="27.22" d="M727.457+672.5L810.008+765.752C810.008+765.752+877.849+858.636+900.544+893.518C918.301+920.808+1080.95+1022.19+1171.18+1021.91C1243.5+1021.69+1291.55+1016.41+1370.82+999.068C1450.1+981.726+1485.31+964.691+1485.31+964.691C1485.31+964.691+1456.87+930.176+1447.52+871.568C1435.58+796.638+1440.08+677.872+1440.08+677.872L727.966+673.519" fill="none" stroke-linecap="round" opacity="1" stroke-linejoin="round"/>
<path stroke="#ffffff" stroke-width="27.86" d="M893.191+1652.91L736.908+1481.98C736.908+1481.98+622.757+1349.2+590.074+1331.02C529.637+1297.4+513.009+1308.31+513.009+1308.31L512.65+1657.21L897.737+1657.21" fill="#ffffff" stroke-linecap="round" opacity="1" stroke-linejoin="round"/>
<path stroke="#ffffff" stroke-width="27.22" d="M1439.65+1453.64C1407.11+1437.42+1357.29+1416.48+1308.83+1389.45C1260.36+1362.42+1167.93+1296.25+1167.93+1296.25L972.294+1143.2C972.294+1143.2+998.459+1187.91+1049.73+1258.02C1095.4+1320.47+1242.66+1500.35+1242.66+1500.35L1070.24+1656L1439.85+1655.95L1439.22+1454.91" fill="#ffffff" stroke-linecap="round" opacity="1" stroke-linejoin="round"/>
<path stroke="#ffffff" stroke-width="9.69" d="M969.907+993.984" fill="#ffffff" stroke-linecap="round" opacity="1" stroke-linejoin="round"/>
<path stroke="#ffffff" stroke-width="9.69" d="M909.42+983.385C909.42+983.385+1080.34+1152.72+1174.84+1223.72C1213.9+1253.07+1444.6+1386.32+1444.6+1386.32C1444.6+1386.32+1547.06+1438.19+1666.39+1454.85C1785.71+1471.52+1921.91+1452.98+1921.91+1452.98C1921.91+1452.98+1826.41+1369.48+1772.91+1253.98C1719.41+1138.48+1715.41+1093.48+1707.91+990.984C1700.41+888.484+1736.91+835.984+1736.91+835.984C1736.91+835.984+1664.91+903.984+1555.91+968.984C1450.17+1032.04+1444.66+1038.23+1349.91+1061.98C1255.16+1085.73+1227.91+1082.98+1150.91+1075.98C1074.11+1069+909.42+983.385+909.42+983.385Z" fill="#ffffff" stroke-linecap="round" opacity="1" stroke-linejoin="round"/>
<path stroke="#ffffff" stroke-width="27.22" d="M1395.09+982.422L1376.08+949.023" fill="none" stroke-linecap="round" opacity="1" stroke-linejoin="round"/>
<path stroke="#ffffff" stroke-width="27.22" d="M1206.83+970.723C1215.61+994.594+1222.57+1010.56+1222.57+1010.56" fill="none" stroke-linecap="round" opacity="1" stroke-linejoin="round"/>
<path stroke="#ffffff" stroke-width="27.22" d="M1159.54+978.378C1165.26+993.767+1169.81+1005.82+1169.81+1005.82" fill="none" stroke-linecap="round" opacity="1" stroke-linejoin="round"/>
<path stroke="#ffffff" stroke-width="27.22" d="M1116.45+737.045L891.759+735.515M1356.24+898.914C1352.95+887.933+1350.78+878.092+1348.59+863.72C1340.84+812.85+1359.9+737.685+1359.9+737.685L1168.48+736.177M890.077+736.246C890.077+736.246+908.37+808.196+930.344+858.568C938.955+878.308+945.2+894.785+950.85+908.478M1169.14+742.001C1169.14+742.001+1164.14+803.564+1177.5+870.703C1180.51+885.843+1184.46+901.266+1188.76+916.075M1116.38+737.267C1116.38+737.267+1111.39+798.83+1124.74+865.969C1128.19+883.273+1132.85+900.947+1137.87+917.652" fill="none" stroke-linecap="round" opacity="1" stroke-linejoin="round"/>
<path stroke="#ffffff" stroke-width="27.22" d="M1191.99+919.054C1200.53+918.273+1210.86+917.344+1224.35+916.268C1287.83+911.208+1355.21+901.43+1355.21+901.43" fill="none" stroke-linecap="round" opacity="1" stroke-linejoin="round"/>
<path stroke="#ffffff" stroke-width="27.22" d="M959.795+910.416C959.795+910.416+1035.14+920.207+1101.28+921.67C1125.57+922.207+1124.75+921.892+1136.5+921.548" fill="none" stroke-linecap="round" opacity="1" stroke-linejoin="round"/>
<path stroke="#ffffff" stroke-width="27.22" d="M1205.12+966.426C1214.91+965.531+1227+964.394+1244.29+963.016C1307.77+957.956+1375.15+948.178+1375.15+948.178" fill="none" stroke-linecap="round" opacity="1" stroke-linejoin="round"/>
<path stroke="#ffffff" stroke-width="27.22" d="M988.582+957.349C988.582+957.349+1055.08+966.955+1121.22+968.418C1134.59+968.714+1144.99+968.876+1153.6+968.904" fill="none" stroke-linecap="round" opacity="1" stroke-linejoin="round"/>
<path stroke="#ffffff" stroke-width="54.93" d="M1143.14+706.493L1148.23+839.959C1148.23+839.959+1164.53+934.2+1168.1+940.823C1171.67+947.445+1193.57+1004.5+1193.57+1004.5" fill="none" stroke-linecap="round" opacity="1" stroke-linejoin="round"/>
<path stroke="#ffffff" stroke-width="54.93" d="M983.909+937.384L1114.74+947.154L1259.59+938.659L1351.76+927.19L1396.79+918.695" fill="none" stroke-linecap="round" opacity="1" stroke-linejoin="round"/>
<path stroke="#ffffff" stroke-width="27.22" d="M927.204+894.588L849.116+757.2L798.036+727.843C798.036+727.843+819.76+746.632+830.328+762.484C840.896+778.337+897.848+861.122+897.848+861.122L863.794+733.715L766.918+692.616L788.054+721.385" fill="none" stroke-linecap="round" opacity="1" stroke-linejoin="round"/>
<path stroke="#ffffff" stroke-width="48.02" d="M803.32+707.294L1391.04+704.358" fill="none" stroke-linecap="round" opacity="1" stroke-linejoin="round"/>
<path stroke="#ffffff" stroke-width="48.02" d="M1393.97+726.082L1379.88+797.712L1381.64+864.645L1413.35+959.76L1456.04+958.837L1407.06+851.618L1411.28+770.949L1420.28+696.788" fill="none" stroke-linecap="round" opacity="1" stroke-linejoin="round"/>
</g>
</svg>
